<?xml version="1.0" encoding="UTF-8" standalone="no"?><!DOCTYPE svg PUBLIC "-//W3C//DTD SVG 1.1//EN" "http://www.w3.org/Graphics/SVG/1.1/DTD/svg11.dtd"><svg width="100%" height="100%" viewBox="0 0 38 38" version="1.1" xmlns="http://www.w3.org/2000/svg" xmlns:xlink="http://www.w3.org/1999/xlink" xml:space="preserve" xmlns:serif="http://www.serif.com/" style="fill-rule:evenodd;clip-rule:evenodd;stroke-linejoin:round;stroke-miterlimit:2;"><g><circle cx="18.865" cy="18.415" r="18.75" style="fill:#ec008c;"/><path d="M15.866,14.536l5.966,0l-0,15.527l-5.966,-0l0,-15.527Zm2.983,-3.374c-1.088,-0 -1.967,-0.304 -2.637,-0.911c-0.67,-0.607 -1.005,-1.36 -1.005,-2.26c0,-0.9 0.335,-1.654 1.005,-2.261c0.67,-0.607 1.549,-0.91 2.637,-0.91c1.088,-0 1.968,0.287 2.637,0.863c0.67,0.576 1.005,1.314 1.005,2.214c0,0.941 -0.335,1.721 -1.005,2.339c-0.669,0.617 -1.549,0.926 -2.637,0.926Z" style="fill:#fff;fill-rule:nonzero;"/></g></svg>